<?xml version="1.0" encoding="utf-8"?>
<svg viewBox="0 0 3000 3000" xmlns="http://www.w3.org/2000/svg">
  <g>
    <g>
      <path opacity="0.8" fill="#f5f3ff" enable-background="new    " d="M2142.4,1266.2c0,193.5-86.1,374.9-236.2,497.6 c-52,42.5-87.8,102.5-100.6,168.8l-40.9,212.6c-12.1,62.6-55.2,112.8-111.5,135.8c-21.5,8.8-45,13.7-69.4,13.7h-167.3v-0.3 c-88.1,0-164.3-62.8-180.9-149.5l-40.6-211c-13-67.3-48.9-127.9-101.2-170.7c-149.6-122.5-235.7-303.5-235.9-496.5 c-0.2-85.8,16.6-169,49.5-247.6c31.9-75.9,77.3-144.3,135.4-203.4c58.1-59,125.9-105.6,201.3-138.5c78.1-34.1,161-52,246.8-53.1 h9.2c33.7,0,67,2.6,99.8,7.7c51.5,8,101.7,22.3,150.1,42.8c76.5,32.3,145.1,78.7,204.1,137.6c59,59,105.3,127.6,137.6,204.1 C2125.3,1095.5,2142.4,1179.5,2142.4,1266.2z"/>
      <path opacity="0.8" fill="#f5f3ff" enable-background="new    " d="M2142.4,1266.2c0,193.5-86.1,374.9-236.2,497.6 c-52,42.5-87.8,102.5-100.6,168.8l-40.9,212.6c-12.1,62.6-55.2,112.8-111.5,135.8c6.5-542.1,42.2-405.7,194.4-910.9 c98.4-326.9-92.7-589.2-247.5-738.5c51.5,8,101.7,22.3,150.1,42.8c76.5,32.3,145.1,78.7,204.1,137.6 c59,59,105.3,127.6,137.6,204.1C2125.3,1095.5,2142.4,1179.5,2142.4,1266.2z"/>
      <path d="M1499.9,655c82.5,0,162.4,16.1,237.7,48c72.8,30.8,138.1,74.8,194.1,130.9 c56.1,56.1,100.1,121.5,130.9,194.1c31.9,75.3,48,155.3,48,237.7c0,46.9-5.3,93.6-15.8,138.9c-10.2,43.9-25.3,86.8-45.1,127.5 c-19.4,40-43.1,77.8-70.8,112.8c-27.5,34.7-58.7,66.4-93.1,94.5c-57.6,47.2-97.3,113.6-111.4,187.1l-40.9,212.6 c-13.9,71.8-77,124-150.3,124h-167.1c-73.3,0-136.4-52.2-150.3-124l-40.6-211c-14.4-74.5-54.2-141.7-112-189 c-142.4-116.5-224.1-288.6-224.5-472.5c-0.2-81.5,15.8-160.7,47-235.5c30.3-72.3,73.6-137.5,128.9-193.5 c55.3-56.2,119.8-100.6,191.5-131.8c74.2-32.5,153.2-49.4,234.8-50.6C1494.1,655,1497.1,655,1499.9,655 M1499.9,592.6 c-3.3,0-6.4,0-9.5,0c-367.5,5.2-664.1,306.5-663.8,674c0.2,209.9,96.5,397.4,247.3,520.8c47,38.6,78.7,92.6,90.3,152.4l40.6,211 c19.5,101.4,108.2,174.8,211.6,174.8h167.1c103.2,0,192.1-73.3,211.6-174.8l40.9-212.6c11.4-59,43-112.5,89.7-150.6 c151.2-123.5,247.7-311.3,247.7-521.7C2173.3,894,1871.8,592.6,1499.9,592.6L1499.9,592.6z" style="stroke-width: 0px; fill: rgba(35, 31, 32, 0.86);"/>
      <g>
        <g>
          <path d="M1500,2490.9c-70.1,0-140.1-11.9-209.7-35.7c-19.5-6.7-29.9-27.9-23.2-47.4 c6.7-19.5,27.9-29.9,47.4-23.2c123.2,42.1,248,42.1,371,0c19.5-6.7,40.7,3.7,47.4,23.2c6.7,19.5-3.7,40.7-23.2,47.4 C1640.1,2479,1570,2490.9,1500,2490.9z" style="fill: rgba(35, 31, 32, 0.9);"/>
        </g>
      </g>
      <g>
        <g>
          <path d="M1500,2648.3c-70.1,0-140.1-11.9-209.7-35.7c-19.5-6.7-29.9-27.9-23.2-47.4 c6.7-19.5,27.9-29.9,47.4-23.2c123.2,42.1,248,42.1,371,0c19.5-6.7,40.7,3.7,47.4,23.2c6.7,19.5-3.7,40.7-23.2,47.4 C1640.1,2636.4,1570,2648.3,1500,2648.3z" style="fill: rgba(35, 31, 32, 0.89);"/>
        </g>
      </g>
      <g>
        <g>
          <path d="M1500.1,2808.1c-42.8,0-85.6-11.4-128.2-34.3c-18.1-9.7-25-32.3-15.2-50.5c9.7-18.1,32.3-25,50.5-15.2 c63.4,34,122.4,34,185.7,0c18.1-9.8,40.8-3,50.5,15.2c9.8,18.1,3,40.8-15.2,50.5C1585.7,2796.7,1542.9,2808.1,1500.1,2808.1z" style="fill: rgba(35, 31, 32, 0.86);"/>
        </g>
      </g>
      <ellipse transform="matrix(0.8831 0.4692 -0.4692 0.8831 632.033 -425.8091)" opacity="0.6" fill="#FFFFFF" cx="1170.4" cy="1055.3" rx="89.6" ry="138.7"/>
    </g>
    <g>
      <g enable-background="new    ">
        <g>
          <polygon points="1448.3,1737.6 1373.4,1709.5 1373.7,1536.8 1448.6,1564.9 &#9;&#9;&#9;&#9;" style="fill: rgba(147, 7, 9, 0.76);"/>
        </g>
        <g>
          <polygon points="1448.6,1564.9 1373.7,1536.8 1517.9,1507.2 1592.8,1535.3 &#9;&#9;&#9;&#9;" style="fill: rgba(147, 7, 9, 0.76);"/>
        </g>
        <g>
          <polygon points="1448.3,1737.6 1448.6,1564.9 1592.8,1535.3 1592.5,1708 &#9;&#9;&#9;&#9;" style="fill: rgba(147, 7, 9, 0.76);"/>
        </g>
      </g>
      <g enable-background="new    ">
        <g>
          <polygon points="1448.7,1507.3 1373.8,1479.3 1373.9,1421.7 1448.9,1449.8 &#9;&#9;&#9;&#9;" style="fill: rgba(147, 7, 9, 0.76);"/>
        </g>
        <g enable-background="new    ">
          <defs>
            <path id="SVGID_1_" enable-background="new    " d="M1623.8,934.5l75,28.1c-28.1-10.5-63.1-11.5-104.9-2.9l-75-28.1 C1560.7,922.9,1595.7,923.9,1623.8,934.5z"/>
          </defs>
          <clipPath id="SVGID_2_">
            <path enable-background="new    " d="M 1623.8 934.5 L 1698.8 962.6 C 1670.7 952.1 1635.7 951.1 1593.9 959.7 L 1518.9 931.6 C 1560.7 922.9 1595.7 923.9 1623.8 934.5 Z" overflow="visible"/>
          </clipPath>
          <g clip-path="url(#SVGID_2_)" enable-background="new    ">
            <path d="M1593.9,959.6l-75-28.1c19-3.9,36.6-5.8,52.8-5.8l75,28.1C1630.5,953.8,1612.9,955.7,1593.9,959.6" style="fill: rgba(147, 7, 9, 0.76);"/>
            <path d="M1646.7,953.8l-75-28.1c11.4,0,22,1.1,32,3l75,28.1C1668.7,954.9,1658.1,953.9,1646.7,953.8" style="fill: rgba(147, 7, 9, 0.76);"/>
            <path d="M1678.7,956.9l-75-28.1c7,1.4,13.7,3.3,20.1,5.7l75,28.1C1692.4,960.2,1685.7,958.3,1678.7,956.9" style="fill: rgba(147, 7, 9, 0.76);"/>
          </g>
        </g>
        <g enable-background="new    ">
          <defs>
            <path id="SVGID_3_" enable-background="new    " d="M1544.8,1105l75,28.1c14.5,5.4,21.8,21.1,21.7,47 c-0.1,38.4-16.1,60.9-48.2,67.4c-96.1,19.7-144.3,87.2-144.5,202.3l-75-28.1c0.2-115.1,48.4-182.6,144.5-202.3 c32-6.6,48.1-29,48.2-67.4C1566.6,1126.1,1559.4,1110.4,1544.8,1105z"/>
          </defs>
          <clipPath id="SVGID_4_">
            <path enable-background="new    " d="M 1544.8 1105 L 1619.8 1133.1 C 1634.3 1138.5 1641.6 1154.2 1641.5 1180.1 C 1641.4 1218.5 1625.4 1241 1593.3 1247.5 C 1497.2 1267.2 1449 1334.7 1448.8 1449.8 L 1373.8 1421.7 C 1374 1306.6 1422.2 1239.1 1518.3 1219.4 C 1550.3 1212.8 1566.4 1190.4 1566.5 1152 C 1566.6 1126.1 1559.4 1110.4 1544.8 1105 Z" overflow="visible"/>
          </clipPath>
          <g clip-path="url(#SVGID_4_)" enable-background="new    ">
            <path d="M1448.9,1449.8l-75-28.1c0-14.3,0.8-27.8,2.3-40.6l75,28.1C1449.6,1422,1448.9,1435.5,1448.9,1449.8" style="fill: rgba(147, 7, 9, 0.76);"/>
            <path d="M1451.1,1409.2l-75-28.1c1.4-11.7,3.4-22.8,5.9-33.3l75,28.1 C1454.5,1386.4,1452.5,1397.5,1451.1,1409.2" style="fill: rgba(147, 7, 9, 0.76);"/>
            <path d="M1457.1,1375.9l-75-28.1c1.8-7.4,4-14.5,6.4-21.3l75,28.1C1461.1,1361.4,1458.9,1368.5,1457.1,1375.9" style="fill: rgba(147, 7, 9, 0.76);"/>
            <path d="M1463.5,1354.6l-75-28.1c2.1-5.8,4.4-11.3,6.9-16.6l75,28.1C1467.9,1343.3,1465.6,1348.8,1463.5,1354.6 " style="fill: rgba(147, 7, 9, 0.76);"/>
            <path d="M1470.4,1338l-75-28.1c2.4-5,4.9-9.8,7.7-14.4l75,28.1C1475.4,1328.2,1472.8,1333,1470.4,1338" style="fill: rgba(147, 7, 9, 0.76);"/>
            <path d="M1478.1,1323.6l-75-28.1c2.9-4.8,5.9-9.4,9.2-13.8l75,28.1C1484.1,1314.2,1481,1318.8,1478.1,1323.6" style="fill: rgba(147, 7, 9, 0.76);"/>
            <path d="M1487.4,1309.8l-75-28.1c3.9-5.1,8-10,12.4-14.5l75,28.1C1495.4,1299.8,1491.2,1304.7,1487.4,1309.8" style="fill: rgba(147, 7, 9, 0.76);"/>
            <path d="M1499.8,1295.3l-75-28.1c7.9-8.1,16.7-15.3,26.4-21.5l75,28.1C1516.5,1280,1507.7,1287.2,1499.8,1295.3 " style="fill: rgba(147, 7, 9, 0.76);"/>
            <path d="M1526.2,1273.8l-75-28.1c14.1-9.1,30.2-16.3,48.2-21.6l75,28.1 C1556.3,1257.4,1540.3,1264.6,1526.2,1273.8" style="fill: rgba(147, 7, 9, 0.76);"/>
            <path d="M1574.3,1252.2l-75-28.1c6.1-1.8,12.5-3.4,19-4.7c2.2-0.4,4.3-1,6.3-1.6l75,28.1 c-2,0.6-4.2,1.1-6.3,1.6C1586.8,1248.8,1580.5,1250.4,1574.3,1252.2" style="fill: rgba(147, 7, 9, 0.76);"/>
            <path d="M1599.7,1245.9l-75-28.1c6-1.8,11.4-4.2,16.1-7.2l75,28.1C1611.1,1241.7,1605.7,1244.1,1599.7,1245.9" style="fill: rgba(147, 7, 9, 0.76);"/>
            <path d="M1615.8,1238.7l-75-28.1c3.2-2.1,6.2-4.5,8.8-7.2l75,28.1C1621.9,1234.2,1619,1236.6,1615.8,1238.7" style="fill: rgba(147, 7, 9, 0.76);"/>
            <path d="M1624.6,1231.5l-75-28.1c1.5-1.5,2.9-3.1,4.1-4.8l75,28.1C1627.4,1228.4,1626,1230,1624.6,1231.5" style="fill: rgba(147, 7, 9, 0.76);"/>
            <path d="M1628.7,1226.7l-75-28.1c1.1-1.5,2.1-3,3.1-4.6l75,28.1C1630.8,1223.7,1629.8,1225.2,1628.7,1226.7" style="fill: rgba(147, 7, 9, 0.76);"/>
            <path d="M1631.8,1222.1l-75-28.1c0.9-1.5,1.8-3.1,2.6-4.8l75,28.1C1633.6,1219,1632.7,1220.6,1631.8,1222.1" style="fill: rgba(147, 7, 9, 0.76);"/>
            <path d="M1634.3,1217.3l-75-28.1c0.8-1.8,1.6-3.6,2.3-5.5l75,28.1C1636,1213.7,1635.2,1215.5,1634.3,1217.3" style="fill: rgba(147, 7, 9, 0.76);"/>
            <path d="M1636.6,1211.7l-75-28.1c0.8-2.3,1.5-4.6,2.1-7.1l75,28.1C1638.2,1207.1,1637.5,1209.5,1636.6,1211.7" style="fill: rgba(147, 7, 9, 0.76);"/>
            <path d="M1638.8,1204.6l-75-28.1c0.9-3.5,1.5-7.2,2-11.1l75,28.1C1640.3,1197.5,1639.7,1201.1,1638.8,1204.6" style="fill: rgba(147, 7, 9, 0.76);"/>
            <path d="M1640.8,1193.6l-75-28.1c0.5-4.3,0.8-8.8,0.8-13.5c0-25.9-7.2-41.5-21.7-47l75,28.1 c14.5,5.4,21.8,21.1,21.7,47C1641.5,1184.8,1641.3,1189.3,1640.8,1193.6" style="fill: rgba(147, 7, 9, 0.76);"/>
          </g>
        </g>
        <g>
          <polygon points="1377.3,1176.7 1302.3,1148.6 1317.1,972.9 1392,1001 &#9;&#9;&#9;&#9;" style="fill: rgba(147, 7, 9, 0.76);"/>
        </g>
        <g>
          <polygon points="1392,1001 1317.1,972.9 1518.9,931.5 1593.9,959.6 &#9;&#9;&#9;&#9;" style="fill: rgba(147, 7, 9, 0.76);"/>
        </g>
        <g>
          <path d="M1593.9,959.6c128.2-26.3,192.1,37.3,191.8,190.8c-0.3,142-48.5,228.7-144.6,259.9 c-32,6.6-48.1,29.1-48.2,67.4l-144.2,29.6l0.1-57.6c0.2-115.1,48.4-182.6,144.5-202.3c32-6.6,48.1-29,48.2-67.4 c0.1-38.4-15.9-54.3-48-47.7l-216.3,44.4L1392,1001L1593.9,959.6z" style="fill: rgba(147, 7, 9, 0.76);"/>
        </g>
      </g>
    </g>
  </g>
  <g>
    <g enable-background="new    ">
      <g>
        <polygon points="1463.8,543.1 1418.8,526.2 1419,422.5 1464,439.3 &#9;&#9;&#9;" style="fill: rgba(7, 160, 255, 0.62);"/>
      </g>
      <g>
        <polygon points="1464,439.3 1419,422.5 1505.6,404.7 1550.6,421.6 &#9;&#9;&#9;" style="fill: rgba(7, 160, 255, 0.62);"/>
      </g>
      <g>
        <polygon points="1463.8,543.1 1464,439.3 1550.6,421.6 1550.4,525.3 &#9;&#9;&#9;" style="fill: rgba(7, 160, 255, 0.62);"/>
      </g>
    </g>
    <g enable-background="new    ">
      <g>
        <polygon points="1464.1,404.8 1419.1,387.9 1419.1,353.3 1464.2,370.2 &#9;&#9;&#9;" style="fill: rgba(7, 160, 255, 0.62);"/>
      </g>
      <g enable-background="new    ">
        <defs>
          <path id="SVGID_5_" enable-background="new    " d="M1569.2,60.8l45,16.9c-16.9-6.3-37.9-6.9-63-1.8l-45-16.9 C1531.3,53.9,1552.3,54.4,1569.2,60.8z"/>
        </defs>
        <clipPath id="SVGID_6_">
          <path enable-background="new    " d="M 1569.2 60.8 L 1614.2 77.7 C 1597.3 71.4 1576.3 70.8 1551.2 75.9 L 1506.2 59 C 1531.3 53.9 1552.3 54.4 1569.2 60.8 Z" overflow="visible"/>
        </clipPath>
        <g clip-path="url(#SVGID_6_)" enable-background="new    ">
          <path d="M1551.3,75.9l-45-16.9c11.4-2.3,22-3.5,31.7-3.5l45,16.9C1573.2,72.4,1562.7,73.5,1551.3,75.9" style="fill: rgba(7, 160, 255, 0.62);"/>
          <path d="M1583,72.4l-45-16.9c6.8,0,13.2,0.6,19.2,1.8l45,16.9C1596.2,73,1589.8,72.4,1583,72.4" style="fill: rgba(7, 160, 255, 0.62);"/>
          <path d="M1602.2,74.2l-45-16.9c4.2,0.8,8.2,2,12,3.4l45,16.9C1610.4,76.2,1606.4,75.1,1602.2,74.2" style="fill: rgba(7, 160, 255, 0.62);"/>
        </g>
      </g>
      <g enable-background="new    ">
        <defs>
          <path id="SVGID_7_" enable-background="new    " d="M1521.8,163.2l45,16.9c8.7,3.3,13.1,12.7,13.1,28.2 c0,23.1-9.7,36.5-28.9,40.5c-57.7,11.8-86.6,52.3-86.8,121.5l-45-16.9c0.1-69.1,29.1-109.6,86.8-121.5 c19.2-3.9,28.9-17.4,28.9-40.5C1534.9,175.8,1530.5,166.4,1521.8,163.2z"/>
        </defs>
        <clipPath id="SVGID_8_">
          <path enable-background="new    " d="M 1521.8 163.2 L 1566.8 180.1 C 1575.5 183.4 1579.9 192.8 1579.9 208.3 C 1579.9 231.4 1570.2 244.8 1551 248.8 C 1493.3 260.6 1464.4 301.1 1464.2 370.3 L 1419.2 353.4 C 1419.3 284.3 1448.3 243.8 1506 231.9 C 1525.2 228 1534.9 214.5 1534.9 191.4 C 1534.9 175.8 1530.5 166.4 1521.8 163.2 Z" overflow="visible"/>
        </clipPath>
        <g clip-path="url(#SVGID_8_)" enable-background="new    ">
          <path d="M1464.2,370.2l-45-16.9c0-8.6,0.5-16.7,1.4-24.4l45,16.9C1464.6,353.5,1464.2,361.6,1464.2,370.2" style="fill: rgba(7, 160, 255, 0.62);"/>
          <path d="M1465.5,345.8l-45-16.9c0.8-7,2-13.7,3.6-20l45,16.9C1467.5,332.2,1466.4,338.8,1465.5,345.8" style="fill: rgba(7, 160, 255, 0.62);"/>
          <path d="M1469.1,325.9l-45-16.9c1.1-4.5,2.4-8.7,3.9-12.8l45,16.9C1471.5,317.2,1470.2,321.4,1469.1,325.9" style="fill: rgba(7, 160, 255, 0.62);"/>
          <path d="M1473,313.1l-45-16.9c1.2-3.5,2.6-6.8,4.1-10l45,16.9C1475.6,306.3,1474.2,309.6,1473,313.1" style="fill: rgba(7, 160, 255, 0.62);"/>
          <path d="M1477.1,303.1l-45-16.9c1.4-3,3-5.9,4.6-8.7l45,16.9C1480.1,297.2,1478.5,300.1,1477.1,303.1" style="fill: rgba(7, 160, 255, 0.62);"/>
          <path d="M1481.7,294.4l-45-16.9c1.7-2.9,3.6-5.6,5.5-8.3l45,16.9C1485.3,288.8,1483.5,291.5,1481.7,294.4" style="fill: rgba(7, 160, 255, 0.62);"/>
          <path d="M1487.3,286.2l-45-16.9c2.3-3.1,4.8-6,7.5-8.7l45,16.9C1492.1,280.2,1489.6,283.1,1487.3,286.2" style="fill: rgba(7, 160, 255, 0.62);"/>
          <path d="M1494.8,277.4l-45-16.9c4.7-4.9,10-9.2,15.8-12.9l45,16.9C1504.8,268.3,1499.5,272.6,1494.8,277.4" style="fill: rgba(7, 160, 255, 0.62);"/>
          <path d="M1510.6,264.5l-45-16.9c8.5-5.5,18.1-9.8,28.9-13l45,16.9C1528.7,254.7,1519.1,259,1510.6,264.5" style="fill: rgba(7, 160, 255, 0.62);"/>
          <path d="M1539.5,251.6l-45-16.9c3.7-1.1,7.5-2,11.4-2.8c1.3-0.3,2.6-0.6,3.8-0.9l45,16.9 c-1.2,0.4-2.5,0.7-3.8,0.9C1547,249.5,1543.2,250.5,1539.5,251.6" style="fill: rgba(7, 160, 255, 0.62);"/>
          <path d="M1554.8,247.8l-45-16.9c3.6-1.1,6.8-2.5,9.6-4.3l45,16.9C1561.6,245.3,1558.4,246.7,1554.8,247.8" style="fill: rgba(7, 160, 255, 0.62);"/>
          <path d="M1564.4,243.5l-45-16.9c1.9-1.3,3.7-2.7,5.3-4.3l45,16.9C1568.1,240.8,1566.3,242.2,1564.4,243.5" style="fill: rgba(7, 160, 255, 0.62);"/>
          <path d="M1569.7,239.2l-45-16.9c0.9-0.9,1.7-1.9,2.5-2.9l45,16.9C1571.4,237.3,1570.6,238.2,1569.7,239.2" style="fill: rgba(7, 160, 255, 0.62);"/>
          <path d="M1572.2,236.2l-45-16.9c0.7-0.9,1.3-1.8,1.8-2.8l45,16.9C1573.4,234.5,1572.8,235.4,1572.2,236.2" style="fill: rgba(7, 160, 255, 0.62);"/>
          <path d="M1574,233.5l-45-16.9c0.6-0.9,1.1-1.9,1.5-2.9l45,16.9C1575.1,231.6,1574.6,232.6,1574,233.5" style="fill: rgba(7, 160, 255, 0.62);"/>
          <path d="M1575.5,230.6l-45-16.9c0.5-1.1,1-2.2,1.4-3.3l45,16.9C1576.5,228.4,1576.1,229.5,1575.5,230.6" style="fill: rgba(7, 160, 255, 0.62);"/>
          <path d="M1576.9,227.3l-45-16.9c0.5-1.4,0.9-2.8,1.3-4.3l45,16.9C1577.8,224.5,1577.4,225.9,1576.9,227.3" style="fill: rgba(7, 160, 255, 0.62);"/>
          <path d="M1578.2,223l-45-16.9c0.5-2.1,0.9-4.3,1.2-6.7l45,16.9C1579.1,218.7,1578.7,220.9,1578.2,223" style="fill: rgba(7, 160, 255, 0.62);"/>
          <path d="M1579.4,216.4l-45-16.9c0.3-2.6,0.5-5.3,0.5-8.1c0-15.5-4.3-24.9-13.1-28.2l45,16.9 c8.7,3.3,13.1,12.7,13.1,28.2C1579.9,211.1,1579.7,213.8,1579.4,216.4" style="fill: rgba(7, 160, 255, 0.62);"/>
        </g>
      </g>
      <g>
        <polygon points="1421.2,206.2 1376.2,189.4 1385,83.9 1430.1,100.7 &#9;&#9;&#9;" style="fill: rgba(7, 160, 255, 0.62);"/>
      </g>
      <g>
        <polygon points="1430.1,100.7 1385,83.9 1506.2,59 1551.3,75.9 &#9;&#9;&#9;" style="fill: rgba(7, 160, 255, 0.62);"/>
      </g>
      <g>
        <path d="M1551.3,75.9c77-15.8,115.4,22.4,115.2,114.6c-0.2,85.3-29.1,137.3-86.8,156.1 c-19.2,3.9-28.9,17.5-28.9,40.5l-86.6,17.8l0.1-34.6c0.1-69.1,29.1-109.6,86.8-121.5c19.2-3.9,28.9-17.4,28.9-40.5 c0-23-9.6-32.6-28.8-28.7l-129.9,26.6l8.9-105.5L1551.3,75.9z" style="fill: rgba(7, 160, 255, 0.62);"/>
      </g>
    </g>
  </g>
  <g>
    <g enable-background="new    ">
      <g>
        <polygon points="963.9,779.6 920.1,799.5 846.9,726 890.7,706.1 &#9;&#9;&#9;" style="fill: rgba(13, 147, 71, 0.73);"/>
      </g>
      <g>
        <polygon points="890.7,706.1 846.9,726 895.6,652.2 939.3,632.3 &#9;&#9;&#9;" style="fill: rgba(13, 147, 71, 0.73);"/>
      </g>
      <g>
        <polygon points="963.9,779.6 890.7,706.1 939.3,632.3 1012.5,705.8 &#9;&#9;&#9;" style="fill: rgba(13, 147, 71, 0.73);"/>
      </g>
    </g>
    <g enable-background="new    ">
      <g>
        <polygon points="866.3,681.6 822.5,701.5 798.1,677 841.9,657.1 &#9;&#9;&#9;" style="fill: rgba(13, 147, 71, 0.73);"/>
      </g>
      <g enable-background="new    ">
        <defs>
          <path id="SVGID_9_" enable-background="new    " d="M697.4,364l43.8-19.9c-16.4,7.5-31.7,21.9-45.8,43.3l-43.8,19.9 C665.7,385.9,680.9,371.5,697.4,364z"/>
        </defs>
        <clipPath id="SVGID_10_">
          <path enable-background="new    " d="M 697.4 364 L 741.2 344.1 C 724.8 351.6 709.5 366 695.4 387.4 L 651.6 407.3 C 665.7 385.9 680.9 371.5 697.4 364 Z" overflow="visible"/>
        </clipPath>
        <g clip-path="url(#SVGID_10_)" enable-background="new    ">
          <path d="M695.3,387.4l-43.8,19.9c6.4-9.7,13.1-18,20-24.9l43.8-19.9C708.4,369.4,701.7,377.7,695.3,387.4" style="fill: rgba(13, 147, 71, 0.73);"/>
          <path d="M715.3,362.6l-43.8,19.9c4.8-4.8,9.8-8.9,14.9-12.3l43.8-19.9C725.1,353.6,720.1,357.7,715.3,362.6" style="fill: rgba(13, 147, 71, 0.73);"/>
          <path d="M730.2,350.3l-43.8,19.9c3.6-2.4,7.2-4.4,10.9-6.1l43.8-19.9C737.4,345.8,733.8,347.9,730.2,350.3" style="fill: rgba(13, 147, 71, 0.73);"/>
        </g>
      </g>
      <g enable-background="new    ">
        <defs>
          <path id="SVGID_11_" enable-background="new    " d="M736.2,470l43.8-19.9c8.5-3.9,18.2-0.3,29.2,10.7 c16.3,16.3,19,32.7,8.2,49.1c-32.4,49.2-24.3,98.3,24.5,147.3L798.1,677c-48.8-49-57-98.1-24.5-147.3 c10.8-16.4,8.1-32.8-8.2-49.1C754.4,469.7,744.7,466.1,736.2,470z"/>
        </defs>
        <clipPath id="SVGID_12_">
          <path enable-background="new    " d="M 736.2 470 L 780 450.1 C 788.5 446.2 798.2 449.8 809.2 460.8 C 825.5 477.1 828.2 493.5 817.4 509.9 C 785 559.1 793.1 608.2 841.9 657.2 L 798.1 677 C 749.3 628 741.1 578.9 773.6 529.7 C 784.4 513.3 781.7 496.9 765.4 480.6 C 754.4 469.7 744.7 466.1 736.2 470 Z" overflow="visible"/>
        </clipPath>
        <g clip-path="url(#SVGID_12_)" enable-background="new    ">
          <path d="M841.9,657.1L798.1,677c-6-6.1-11.5-12.1-16.3-18.2l43.8-19.9C830.4,645,835.8,651.1,841.9,657.1" style="fill: rgba(13, 147, 71, 0.73);"/>
          <path d="M825.6,638.9l-43.8,19.9c-4.4-5.5-8.3-11.1-11.6-16.6l43.8-19.9C817.4,627.8,821.2,633.4,825.6,638.9" style="fill: rgba(13, 147, 71, 0.73);"/>
          <path d="M814,622.3l-43.8,19.9c-2.4-3.9-4.5-7.9-6.3-11.8l43.8-19.9C809.5,614.4,811.6,618.4,814,622.3" style="fill: rgba(13, 147, 71, 0.73);"/>
          <path d="M807.7,610.5l-43.8,19.9c-1.6-3.3-2.9-6.7-4.1-10l43.8-19.9C804.8,603.8,806.1,607.2,807.7,610.5" style="fill: rgba(13, 147, 71, 0.73);"/>
          <path d="M803.6,600.5l-43.8,19.9c-1.1-3.1-2.1-6.3-2.9-9.4l43.8-19.9C801.5,594.3,802.4,597.4,803.6,600.5" style="fill: rgba(13, 147, 71, 0.73);"/>
          <path d="M800.7,591.1L757,611c-0.8-3.3-1.5-6.5-1.9-9.8l43.8-19.9C799.3,584.6,799.9,587.9,800.7,591.1" style="fill: rgba(13, 147, 71, 0.73);"/>
          <path d="M798.8,581.4L755,601.3c-0.5-3.8-0.8-7.6-0.9-11.5l43.8-19.9C798,573.7,798.2,577.5,798.8,581.4" style="fill: rgba(13, 147, 71, 0.73);"/>
          <path d="M797.9,569.9l-43.8,19.9c-0.1-6.8,0.6-13.6,2.1-20.3l43.8-19.9C798.5,556.3,797.8,563.1,797.9,569.9" style="fill: rgba(13, 147, 71, 0.73);"/>
          <path d="M800,549.6l-43.8,19.9c2.1-9.9,5.9-19.7,11.3-29.6l43.8-19.9C805.8,529.8,802.1,539.7,800,549.6" style="fill: rgba(13, 147, 71, 0.73);"/>
          <path d="M811.2,520l-43.8,19.9c1.8-3.4,3.9-6.7,6.1-10.1c0.7-1.1,1.4-2.2,2-3.4l43.8-19.9 c-0.6,1.1-1.3,2.2-2,3.4C815.1,513.2,813.1,516.6,811.2,520" style="fill: rgba(13, 147, 71, 0.73);"/>
          <path d="M819.4,506.5l-43.8,19.9c1.8-3.3,3.1-6.6,3.8-9.9l43.8-19.9C822.4,499.9,821.2,503.2,819.4,506.5" style="fill: rgba(13, 147, 71, 0.73);"/>
          <path d="M823.1,496.6l-43.8,19.9c0.5-2.3,0.7-4.5,0.7-6.8l43.8-19.9C823.8,492.1,823.6,494.4,823.1,496.6" style="fill: rgba(13, 147, 71, 0.73);"/>
          <path d="M823.8,489.9l-43.8,19.9c0-1.3-0.1-2.5-0.3-3.8l43.8-19.9C823.7,487.3,823.8,488.6,823.8,489.9" style="fill: rgba(13, 147, 71, 0.73);"/>
          <path d="M823.5,486L779.8,506c-0.2-1.1-0.4-2.2-0.6-3.3l43.8-19.9C823.1,483.9,823.4,485,823.5,486" style="fill: rgba(13, 147, 71, 0.73);"/>
          <path d="M822.9,482.8l-43.8,19.9c-0.3-1-0.6-2.1-1-3.1l43.8-19.9C822.3,480.7,822.6,481.7,822.9,482.8" style="fill: rgba(13, 147, 71, 0.73);"/>
          <path d="M821.9,479.7l-43.8,19.9c-0.4-1.1-0.9-2.2-1.4-3.3l43.8-19.9C821.1,477.4,821.5,478.6,821.9,479.7" style="fill: rgba(13, 147, 71, 0.73);"/>
          <path d="M820.5,476.3l-43.8,19.9c-0.6-1.3-1.3-2.6-2.1-3.9l43.8-19.9C819.2,473.7,819.9,475,820.5,476.3" style="fill: rgba(13, 147, 71, 0.73);"/>
          <path d="M818.4,472.4l-43.8,19.9c-1.1-1.9-2.4-3.7-3.9-5.5l43.8-19.9C816,468.7,817.3,470.6,818.4,472.4" style="fill: rgba(13, 147, 71, 0.73);"/>
          <path d="M814.6,466.9l-43.8,19.9c-1.6-2-3.4-4-5.4-6.1c-11-11-20.7-14.6-29.2-10.7l43.8-19.9 c8.5-3.9,18.2-0.3,29.2,10.7C811.2,462.8,813,464.8,814.6,466.9" style="fill: rgba(13, 147, 71, 0.73);"/>
        </g>
      </g>
      <g>
        <polygon points="695.5,571.6 651.8,591.5 583.4,510.6 627.2,490.7 &#9;&#9;&#9;" style="fill: rgba(13, 147, 71, 0.73);"/>
      </g>
      <g>
        <polygon points="627.2,490.7 583.4,510.6 651.6,407.3 695.3,387.4 &#9;&#9;&#9;" style="fill: rgba(13, 147, 71, 0.73);"/>
      </g>
      <g>
        <path d="M695.3,387.4c43.3-65.6,97.4-65.7,162.5-0.4c60.2,60.4,76.5,117.7,48.9,171.7 c-10.8,16.4-8.1,32.8,8.2,49.1l-48.7,73.8l-24.4-24.5c-48.8-49-57-98.1-24.5-147.3c10.8-16.4,8.1-32.8-8.2-49.1 c-16.3-16.3-29.8-16.3-40.6,0.1l-73,110.7l-68.3-80.9L695.3,387.4z" style="fill: rgba(13, 147, 71, 0.73);"/>
      </g>
    </g>
  </g>
  <g>
    <g enable-background="new    ">
      <g>
        <polygon points="777.6,1300.4 760.7,1345.4 657,1345.2 673.9,1300.2 &#9;&#9;&#9;" style="fill: rgba(146, 136, 51, 0.7);"/>
      </g>
      <g>
        <polygon points="673.9,1300.2 657,1345.2 639.2,1258.6 656.1,1213.6 &#9;&#9;&#9;" style="fill: rgba(146, 136, 51, 0.7);"/>
      </g>
      <g>
        <polygon points="777.6,1300.4 673.9,1300.2 656.1,1213.6 759.8,1213.8 &#9;&#9;&#9;" style="fill: rgba(146, 136, 51, 0.7);"/>
      </g>
    </g>
    <g enable-background="new    ">
      <g>
        <polygon points="639.3,1300.1 622.4,1345.1 587.9,1345.1 604.7,1300.1 &#9;&#9;&#9;" style="fill: rgba(146, 136, 51, 0.7);"/>
      </g>
      <g enable-background="new    ">
        <defs>
          <path id="SVGID_13_" enable-background="new    " d="M295.3,1195l16.9-45c-6.3,16.9-6.9,37.9-1.8,63l-16.9,45 C288.4,1232.9,289,1211.9,295.3,1195z"/>
        </defs>
        <clipPath id="SVGID_14_">
          <path enable-background="new    " d="M 295.3 1195 L 312.2 1150 C 305.9 1166.9 305.3 1187.9 310.4 1213 L 293.5 1258 C 288.4 1232.9 289 1211.9 295.3 1195 Z" overflow="visible"/>
        </clipPath>
        <g clip-path="url(#SVGID_14_)" enable-background="new    ">
          <path d="M310.4,1213l-16.9,45c-2.3-11.4-3.5-22-3.5-31.7l16.9-45C306.9,1191,308,1201.5,310.4,1213" style="fill: rgba(146, 136, 51, 0.7);"/>
          <path d="M306.9,1181.3l-16.9,45c0-6.8,0.6-13.2,1.8-19.2l16.9-45C307.6,1168,307,1174.4,306.9,1181.3" style="fill: rgba(146, 136, 51, 0.7);"/>
          <path d="M308.8,1162l-16.9,45c0.8-4.2,2-8.2,3.4-12l16.9-45C310.7,1153.8,309.6,1157.8,308.8,1162" style="fill: rgba(146, 136, 51, 0.7);"/>
        </g>
      </g>
      <g enable-background="new    ">
        <defs>
          <path id="SVGID_15_" enable-background="new    " d="M397.7,1242.4l16.9-45c3.3-8.7,12.7-13.1,28.2-13.1 c23.1,0,36.5,9.7,40.5,28.9c11.8,57.7,52.3,86.6,121.5,86.8l-16.9,45c-69.1-0.1-109.6-29.1-121.5-86.8 c-3.9-19.2-17.4-28.9-40.5-28.9C410.4,1229.3,401,1233.7,397.7,1242.4z"/>
        </defs>
        <clipPath id="SVGID_16_">
          <path enable-background="new    " d="M 397.7 1242.4 L 414.6 1197.4 C 417.9 1188.7 427.3 1184.3 442.8 1184.3 C 465.9 1184.3 479.3 1194 483.3 1213.2 C 495.1 1270.9 535.6 1299.8 604.8 1300 L 587.9 1345 C 518.8 1344.9 478.3 1315.9 466.4 1258.2 C 462.5 1239 449 1229.3 425.9 1229.3 C 410.4 1229.3 401 1233.7 397.7 1242.4 Z" overflow="visible"/>
        </clipPath>
        <g clip-path="url(#SVGID_16_)" enable-background="new    ">
          <path d="M604.7,1300.1l-16.9,45c-8.6,0-16.7-0.5-24.4-1.4l16.9-45C588.1,1299.6,596.2,1300,604.7,1300.1" style="fill: rgba(146, 136, 51, 0.7);"/>
          <path d="M580.4,1298.7l-16.9,45c-7-0.8-13.7-2-20-3.6l16.9-45C566.7,1296.7,573.3,1297.9,580.4,1298.7" style="fill: rgba(146, 136, 51, 0.7);"/>
          <path d="M560.4,1295.1l-16.9,45c-4.5-1.1-8.7-2.4-12.8-3.9l16.9-45C551.7,1292.7,555.9,1294,560.4,1295.1" style="fill: rgba(146, 136, 51, 0.7);"/>
          <path d="M547.6,1291.2l-16.9,45c-3.5-1.2-6.8-2.6-10-4.1l16.9-45C540.8,1288.6,544.1,1290,547.6,1291.2" style="fill: rgba(146, 136, 51, 0.7);"/>
          <path d="M537.6,1287.1l-16.9,45c-3-1.4-5.9-3-8.7-4.6l16.9-45C531.7,1284.1,534.6,1285.7,537.6,1287.1" style="fill: rgba(146, 136, 51, 0.7);"/>
          <path d="M528.9,1282.5l-16.9,45c-2.9-1.7-5.6-3.6-8.3-5.5l16.9-45C523.3,1278.9,526.1,1280.8,528.9,1282.5" style="fill: rgba(146, 136, 51, 0.7);"/>
          <path d="M520.7,1276.9l-16.9,45c-3.1-2.3-6-4.8-8.7-7.5l16.9-45C514.7,1272.1,517.6,1274.6,520.7,1276.9" style="fill: rgba(146, 136, 51, 0.7);"/>
          <path d="M512,1269.5l-16.9,45c-4.9-4.7-9.2-10-12.9-15.8l16.9-45C502.8,1259.4,507.1,1264.7,512,1269.5" style="fill: rgba(146, 136, 51, 0.7);"/>
          <path d="M499,1253.6l-16.9,45c-5.5-8.5-9.8-18.1-13-28.9l16.9-45C489.2,1235.5,493.6,1245.1,499,1253.6" style="fill: rgba(146, 136, 51, 0.7);"/>
          <path d="M486.1,1224.7l-16.9,45c-1.1-3.7-2-7.5-2.8-11.4c-0.3-1.3-0.6-2.6-0.9-3.8l16.9-45 c0.4,1.2,0.7,2.5,0.9,3.8C484.1,1217.2,485,1221,486.1,1224.7" style="fill: rgba(146, 136, 51, 0.7);"/>
          <path d="M482.3,1209.5l-16.9,45c-1.1-3.6-2.5-6.8-4.3-9.6l16.9-45C479.8,1202.6,481.2,1205.9,482.3,1209.5" style="fill: rgba(146, 136, 51, 0.7);"/>
          <path d="M478,1199.8l-16.9,45c-1.3-1.9-2.7-3.7-4.3-5.3l16.9-45C475.3,1196.1,476.7,1197.9,478,1199.8" style="fill: rgba(146, 136, 51, 0.7);"/>
          <path d="M473.7,1194.5l-16.9,45c-0.9-0.9-1.9-1.7-2.9-2.5l16.9-45C471.8,1192.8,472.8,1193.7,473.7,1194.5" style="fill: rgba(146, 136, 51, 0.7);"/>
          <path d="M470.8,1192.1l-16.9,45c-0.9-0.7-1.8-1.3-2.8-1.8l16.9-45C469,1190.8,469.9,1191.4,470.8,1192.1" style="fill: rgba(146, 136, 51, 0.7);"/>
          <path d="M468,1190.2l-16.9,45c-0.9-0.6-1.9-1.1-2.9-1.5l16.9-45C466.1,1189.1,467.1,1189.7,468,1190.2" style="fill: rgba(146, 136, 51, 0.7);"/>
          <path d="M465.1,1188.7l-16.9,45c-1.1-0.5-2.2-1-3.3-1.4l16.9-45C463,1187.7,464.1,1188.2,465.1,1188.7" style="fill: rgba(146, 136, 51, 0.7);"/>
          <path d="M461.8,1187.3l-16.9,45c-1.4-0.5-2.8-0.9-4.3-1.3l16.9-45C459,1186.4,460.4,1186.8,461.8,1187.3" style="fill: rgba(146, 136, 51, 0.7);"/>
          <path d="M457.5,1186l-16.9,45c-2.1-0.5-4.3-0.9-6.7-1.2l16.9-45C453.2,1185.1,455.4,1185.5,457.5,1186" style="fill: rgba(146, 136, 51, 0.7);"/>
          <path d="M450.9,1184.8l-16.9,45c-2.6-0.3-5.3-0.5-8.1-0.5c-15.5,0-24.9,4.3-28.2,13.1l16.9-45 c3.3-8.7,12.7-13.1,28.2-13.1C445.6,1184.4,448.3,1184.5,450.9,1184.8" style="fill: rgba(146, 136, 51, 0.7);"/>
        </g>
      </g>
      <g>
        <polygon points="440.7,1343 423.9,1388 318.4,1379.2 335.3,1334.2 &#9;&#9;&#9;" style="fill: rgba(146, 136, 51, 0.7);"/>
      </g>
      <g>
        <polygon points="335.3,1334.2 318.4,1379.2 293.5,1258 310.4,1213 &#9;&#9;&#9;" style="fill: rgba(146, 136, 51, 0.7);"/>
      </g>
      <g>
        <path d="M310.4,1213c-15.8-77,22.4-115.4,114.6-115.2c85.3,0.2,137.3,29.1,156.1,86.8 c3.9,19.2,17.5,28.9,40.5,28.9l17.8,86.6l-34.6-0.1c-69.1-0.1-109.6-29.1-121.5-86.8c-3.9-19.2-17.4-28.9-40.5-28.9 c-23,0-32.6,9.6-28.7,28.8l26.6,129.9l-105.5-8.9L310.4,1213z" style="fill: rgba(146, 136, 51, 0.7);"/>
      </g>
    </g>
  </g>
  <g>
    <g enable-background="new    ">
      <g>
        <polygon points="1014.1,1800.3 1034,1844.1 960.5,1917.3 940.6,1873.5 &#9;&#9;&#9;" style="fill: rgba(73, 45, 137, 0.73);"/>
      </g>
      <g>
        <polygon points="940.6,1873.5 960.5,1917.3 886.8,1868.6 866.9,1824.9 &#9;&#9;&#9;" style="fill: rgba(73, 45, 137, 0.73);"/>
      </g>
      <g>
        <polygon points="1014.1,1800.3 940.6,1873.5 866.9,1824.9 940.3,1751.7 &#9;&#9;&#9;" style="fill: rgba(73, 45, 137, 0.73);"/>
      </g>
    </g>
    <g enable-background="new    ">
      <g>
        <polygon points="916.1,1897.9 936.1,1941.7 911.6,1966.1 891.7,1922.3 &#9;&#9;&#9;" style="fill: rgba(73, 45, 137, 0.73);"/>
      </g>
      <g enable-background="new    ">
        <defs>
          <path id="SVGID_17_" enable-background="new    " d="M598.6,2066.9l-19.9-43.8c7.5,16.4,21.9,31.7,43.3,45.8l19.9,43.8 C620.5,2098.5,606,2083.3,598.6,2066.9z"/>
        </defs>
        <clipPath id="SVGID_18_">
          <path enable-background="new    " d="M 598.6 2066.9 L 578.7 2023.1 C 586.2 2039.5 600.6 2054.8 622 2068.9 L 641.9 2112.7 C 620.5 2098.5 606 2083.3 598.6 2066.9 Z" overflow="visible"/>
        </clipPath>
        <g clip-path="url(#SVGID_18_)" enable-background="new    ">
          <path d="M621.9,2068.9l19.9,43.8c-9.7-6.4-18-13.1-24.9-20l-19.9-43.8C603.9,2055.8,612.2,2062.5,621.9,2068.9" style="fill: rgba(73, 45, 137, 0.73);"/>
          <path d="M597.1,2048.9l19.9,43.8c-4.8-4.8-8.9-9.8-12.3-14.9l-19.9-43.8C588.2,2039.1,592.3,2044.1,597.1,2048.9 " style="fill: rgba(73, 45, 137, 0.73);"/>
          <path d="M584.8,2034l19.9,43.8c-2.4-3.6-4.4-7.2-6.1-10.9l-19.9-43.8C580.3,2026.8,582.4,2030.5,584.8,2034" style="fill: rgba(73, 45, 137, 0.73);"/>
        </g>
      </g>
      <g enable-background="new    ">
        <defs>
          <path id="SVGID_19_" enable-background="new    " d="M704.5,2028l-19.9-43.8c-3.9-8.5-0.3-18.2,10.7-29.2 c16.3-16.3,32.7-19,49.1-8.2c49.2,32.4,98.3,24.3,147.3-24.5l19.9,43.8c-49,48.8-98.1,57-147.3,24.5 c-16.4-10.8-32.8-8.1-49.1,8.2C704.2,2009.8,700.6,2019.5,704.5,2028z"/>
        </defs>
        <clipPath id="SVGID_20_">
          <path enable-background="new    " d="M 704.5 2028 L 684.6 1984.2 C 680.7 1975.7 684.3 1966 695.3 1955 C 711.6 1938.7 728 1936 744.4 1946.8 C 793.6 1979.2 842.7 1971.1 891.7 1922.3 L 911.6 1966.1 C 862.6 2014.9 813.5 2023.1 764.3 1990.6 C 747.9 1979.8 731.5 1982.5 715.2 1998.8 C 704.2 2009.8 700.6 2019.5 704.5 2028 Z" overflow="visible"/>
        </clipPath>
        <g clip-path="url(#SVGID_20_)" enable-background="new    ">
          <path d="M891.7,1922.3l19.9,43.8c-6.1,6-12.1,11.5-18.2,16.3l-19.9-43.8C879.5,1933.8,885.6,1928.4,891.7,1922.3 " style="fill: rgba(73, 45, 137, 0.73);"/>
          <path d="M873.5,1938.6l19.9,43.8c-5.5,4.4-11.1,8.3-16.6,11.6l-19.9-43.8C862.4,1946.9,867.9,1943,873.5,1938.6" style="fill: rgba(73, 45, 137, 0.73);"/>
          <path d="M856.8,1950.2l19.9,43.8c-3.9,2.4-7.9,4.5-11.8,6.3l-19.9-43.8C849,1954.7,852.9,1952.6,856.8,1950.2" style="fill: rgba(73, 45, 137, 0.73);"/>
          <path d="M845,1956.5l19.9,43.8c-3.3,1.6-6.7,2.9-10,4.1l-19.9-43.8C838.4,1959.5,841.7,1958.1,845,1956.5" style="fill: rgba(73, 45, 137, 0.73);"/>
          <path d="M835,1960.7l19.9,43.8c-3.1,1.1-6.3,2.1-9.4,2.9l-19.9-43.8C828.8,1962.7,831.9,1961.8,835,1960.7" style="fill: rgba(73, 45, 137, 0.73);"/>
          <path d="M825.6,1963.5l19.9,43.8c-3.3,0.8-6.5,1.5-9.8,1.9l-19.9-43.8C819.1,1965,822.4,1964.3,825.6,1963.5" style="fill: rgba(73, 45, 137, 0.73);"/>
          <path d="M815.9,1965.4l19.9,43.8c-3.8,0.5-7.6,0.8-11.5,0.9l-19.9-43.8C808.2,1966.3,812.1,1966,815.9,1965.4" style="fill: rgba(73, 45, 137, 0.73);"/>
          <path d="M804.4,1966.3l19.9,43.8c-6.8,0.1-13.6-0.6-20.3-2.1l-19.9-43.8C790.9,1965.7,797.6,1966.4,804.4,1966.3 " style="fill: rgba(73, 45, 137, 0.73);"/>
          <path d="M784.1,1964.3L804,2008c-9.9-2.1-19.7-5.9-29.6-11.3l-19.9-43.8C764.4,1958.4,774.2,1962.1,784.1,1964.3 " style="fill: rgba(73, 45, 137, 0.73);"/>
          <path d="M754.5,1953l19.9,43.8c-3.4-1.8-6.7-3.9-10.1-6.1c-1.1-0.7-2.2-1.4-3.4-2l-19.9-43.8 c1.1,0.6,2.2,1.3,3.4,2C747.8,1949.1,751.1,1951.1,754.5,1953" style="fill: rgba(73, 45, 137, 0.73);"/>
          <path d="M741,1944.9l19.9,43.8c-3.3-1.8-6.6-3.1-9.9-3.8l-19.9-43.8C734.5,1941.8,737.7,1943.1,741,1944.9" style="fill: rgba(73, 45, 137, 0.73);"/>
          <path d="M731.2,1941.1l19.9,43.8c-2.3-0.5-4.5-0.7-6.8-0.7l-19.9-43.8C726.6,1940.4,728.9,1940.6,731.2,1941.1" style="fill: rgba(73, 45, 137, 0.73);"/>
          <path d="M724.4,1940.4l19.9,43.8c-1.3,0-2.5,0.1-3.8,0.3l-19.9-43.8C721.8,1940.5,723.1,1940.4,724.4,1940.4" style="fill: rgba(73, 45, 137, 0.73);"/>
          <path d="M720.6,1940.7l19.9,43.8c-1.1,0.2-2.2,0.4-3.3,0.6l-19.9-43.8C718.4,1941.1,719.5,1940.9,720.6,1940.7" style="fill: rgba(73, 45, 137, 0.73);"/>
          <path d="M717.3,1941.3l19.9,43.8c-1,0.3-2.1,0.6-3.1,1l-19.9-43.8C715.2,1941.9,716.3,1941.6,717.3,1941.3" style="fill: rgba(73, 45, 137, 0.73);"/>
          <path d="M714.2,1942.3l19.9,43.8c-1.1,0.4-2.2,0.9-3.3,1.4l-19.9-43.8C712,1943.2,713.1,1942.7,714.2,1942.3" style="fill: rgba(73, 45, 137, 0.73);"/>
          <path d="M710.9,1943.7l19.9,43.8c-1.3,0.6-2.6,1.3-3.9,2.1l-19.9-43.8C708.2,1945,709.5,1944.3,710.9,1943.7" style="fill: rgba(73, 45, 137, 0.73);"/>
          <path d="M706.9,1945.8l19.9,43.8c-1.9,1.1-3.7,2.4-5.5,3.9l-19.9-43.8C703.2,1948.2,705.1,1946.9,706.9,1945.8" style="fill: rgba(73, 45, 137, 0.73);"/>
          <path d="M701.4,1949.6l19.9,43.8c-2,1.6-4,3.4-6.1,5.4c-11,11-14.6,20.7-10.7,29.2l-19.9-43.8 c-3.9-8.5-0.3-18.2,10.7-29.2C697.3,1953.1,699.4,1951.2,701.4,1949.6" style="fill: rgba(73, 45, 137, 0.73);"/>
        </g>
      </g>
      <g>
        <polygon points="806.1,2068.7 826,2112.4 745.1,2180.8 725.2,2137 &#9;&#9;&#9;" style="fill: rgba(73, 45, 137, 0.73);"/>
      </g>
      <g>
        <polygon points="725.2,2137 745.1,2180.8 641.8,2112.6 621.9,2068.9 &#9;&#9;&#9;" style="fill: rgba(73, 45, 137, 0.73);"/>
      </g>
      <g>
        <path d="M621.9,2068.9c-65.6-43.3-65.7-97.4-0.4-162.5c60.4-60.2,117.7-76.5,171.7-48.9 c16.4,10.8,32.8,8.1,49.1-8.2l73.8,48.7l-24.5,24.4c-49,48.8-98.1,57-147.3,24.5c-16.4-10.8-32.8-8.1-49.1,8.2 c-16.3,16.3-16.3,29.8,0.1,40.6l110.7,73l-80.9,68.3L621.9,2068.9z" style="fill: rgba(73, 45, 137, 0.73);"/>
      </g>
    </g>
  </g>
  <g>
    <g enable-background="new    ">
      <g>
        <polygon points="2034.9,1750.1 2078.6,1730.2 2151.8,1803.7 2108.1,1823.6 &#9;&#9;&#9;" style="fill: rgba(73, 45, 137, 0.73);"/>
      </g>
      <g>
        <polygon points="2108.1,1823.6 2151.8,1803.7 2103.2,1877.5 2059.4,1897.4 &#9;&#9;&#9;" style="fill: rgba(73, 45, 137, 0.73);"/>
      </g>
      <g>
        <polygon points="2034.9,1750.1 2108.1,1823.6 2059.4,1897.4 1986.2,1823.9 &#9;&#9;&#9;" style="fill: rgba(73, 45, 137, 0.73);"/>
      </g>
    </g>
    <g enable-background="new    ">
      <g>
        <polygon points="2132.5,1848.1 2176.2,1828.2 2200.6,1852.7 2156.9,1872.6 &#9;&#9;&#9;" style="fill: rgba(73, 45, 137, 0.73);"/>
      </g>
      <g enable-background="new    ">
        <defs>
          <path id="SVGID_21_" enable-background="new    " d="M2301.4,2165.6l-43.8,19.9c16.4-7.5,31.7-21.9,45.8-43.3l43.8-19.9 C2333.1,2143.7,2317.8,2158.2,2301.4,2165.6z"/>
        </defs>
        <clipPath id="SVGID_22_">
          <path enable-background="new    " d="M 2301.4 2165.6 L 2257.6 2185.5 C 2274 2178 2289.3 2163.6 2303.4 2142.2 L 2347.2 2122.3 C 2333.1 2143.7 2317.8 2158.2 2301.4 2165.6 Z" overflow="visible"/>
        </clipPath>
        <g clip-path="url(#SVGID_22_)" enable-background="new    ">
          <path d="M2303.4,2142.3l43.8-19.9c-6.4,9.7-13.1,18-20,24.9l-43.8,19.9C2290.3,2160.3,2297,2152,2303.4,2142.3" style="fill: rgba(73, 45, 137, 0.73);"/>
          <path d="M2283.4,2167.1l43.8-19.9c-4.8,4.8-9.8,8.9-14.9,12.3l-43.8,19.9 C2273.6,2176,2278.6,2171.9,2283.4,2167.1" style="fill: rgba(73, 45, 137, 0.73);"/>
          <path d="M2268.6,2179.4l43.8-19.9c-3.6,2.4-7.2,4.4-10.9,6.1l-43.8,19.9 C2261.3,2183.9,2265,2181.8,2268.6,2179.4" style="fill: rgba(73, 45, 137, 0.73);"/>
        </g>
      </g>
      <g enable-background="new    ">
        <defs>
          <path id="SVGID_23_" enable-background="new    " d="M2262.5,2059.7l-43.8,19.9c-8.5,3.9-18.2,0.3-29.2-10.7 c-16.3-16.3-19-32.7-8.2-49.1c32.4-49.2,24.3-98.3-24.5-147.3l43.8-19.9c48.8,49,57,98.1,24.5,147.3 c-10.8,16.4-8.1,32.8,8.2,49.1C2244.3,2060,2254,2063.6,2262.5,2059.7z"/>
        </defs>
        <clipPath id="SVGID_24_">
          <path enable-background="new    " d="M 2262.5 2059.7 L 2218.7 2079.6 C 2210.2 2083.5 2200.5 2079.9 2189.5 2068.9 C 2173.2 2052.6 2170.5 2036.2 2181.3 2019.8 C 2213.7 1970.6 2205.6 1921.5 2156.8 1872.5 L 2200.6 1852.6 C 2249.4 1901.6 2257.6 1950.7 2225.1 1999.9 C 2214.3 2016.3 2217 2032.7 2233.3 2049 C 2244.3 2060 2254 2063.6 2262.5 2059.7 Z" overflow="visible"/>
        </clipPath>
        <g clip-path="url(#SVGID_24_)" enable-background="new    ">
          <path d="M2156.9,1872.6l43.8-19.9c6,6.1,11.5,12.1,16.3,18.2l-43.8,19.9 C2168.3,1884.7,2162.9,1878.6,2156.9,1872.6" style="fill: rgba(73, 45, 137, 0.73);"/>
          <path d="M2173.1,1890.8l43.8-19.9c4.4,5.5,8.3,11.1,11.6,16.6l-43.8,19.9 C2181.4,1901.8,2177.5,1896.3,2173.1,1890.8" style="fill: rgba(73, 45, 137, 0.73);"/>
          <path d="M2184.7,1907.4l43.8-19.9c2.4,3.9,4.5,7.9,6.3,11.8l-43.8,19.9 C2189.2,1915.3,2187.1,1911.3,2184.7,1907.4" style="fill: rgba(73, 45, 137, 0.73);"/>
          <path d="M2191,1919.2l43.8-19.9c1.6,3.3,2.9,6.7,4.1,10l-43.8,19.9C2194,1925.9,2192.6,1922.5,2191,1919.2" style="fill: rgba(73, 45, 137, 0.73);"/>
          <path d="M2195.2,1929.2l43.8-19.9c1.1,3.1,2.1,6.3,2.9,9.4l-43.8,19.9 C2197.2,1935.4,2196.3,1932.3,2195.2,1929.2" style="fill: rgba(73, 45, 137, 0.73);"/>
          <path d="M2198,1938.6l43.8-19.9c0.8,3.3,1.5,6.5,1.9,9.8l-43.8,19.9C2199.5,1945.1,2198.8,1941.8,2198,1938.6" style="fill: rgba(73, 45, 137, 0.73);"/>
          <path d="M2199.9,1948.3l43.8-19.9c0.5,3.8,0.8,7.6,0.9,11.5l-43.8,19.9C2200.8,1956,2200.5,1952.2,2199.9,1948.3 " style="fill: rgba(73, 45, 137, 0.73);"/>
          <path d="M2200.8,1959.8l43.8-19.9c0.1,6.8-0.6,13.6-2.1,20.3l-43.8,19.9 C2200.2,1973.3,2200.9,1966.6,2200.8,1959.8" style="fill: rgba(73, 45, 137, 0.73);"/>
          <path d="M2198.8,1980.1l43.8-19.9c-2.1,9.9-5.9,19.7-11.3,29.6l-43.8,19.9 C2192.9,1999.9,2196.7,1990,2198.8,1980.1" style="fill: rgba(73, 45, 137, 0.73);"/>
          <path d="M2187.5,2009.7l43.8-19.9c-1.8,3.4-3.9,6.7-6.1,10.1c-0.7,1.1-1.4,2.2-2,3.4l-43.8,19.9 c0.6-1.1,1.3-2.2,2-3.4C2183.6,2016.5,2185.7,2013.1,2187.5,2009.7" style="fill: rgba(73, 45, 137, 0.73);"/>
          <path d="M2179.4,2023.2l43.8-19.9c-1.8,3.3-3.1,6.6-3.8,9.9l-43.8,19.9 C2176.3,2029.8,2177.6,2026.5,2179.4,2023.2" style="fill: rgba(73, 45, 137, 0.73);"/>
          <path d="M2175.6,2033.1l43.8-19.9c-0.5,2.3-0.7,4.5-0.7,6.8l-43.8,19.9 C2174.9,2037.6,2175.1,2035.3,2175.6,2033.1" style="fill: rgba(73, 45, 137, 0.73);"/>
          <path d="M2174.9,2039.8l43.8-19.9c0,1.3,0.1,2.5,0.3,3.8l-43.8,19.9C2175,2042.4,2174.9,2041.1,2174.9,2039.8" style="fill: rgba(73, 45, 137, 0.73);"/>
          <path d="M2175.2,2043.6l43.8-19.9c0.2,1.1,0.4,2.2,0.6,3.3l-43.8,19.9 C2175.6,2045.8,2175.4,2044.7,2175.2,2043.6" style="fill: rgba(73, 45, 137, 0.73);"/>
          <path d="M2175.9,2046.9l43.8-19.9c0.3,1,0.6,2.1,1,3.1l-43.8,19.9C2176.4,2049,2176.1,2047.9,2175.9,2046.9" style="fill: rgba(73, 45, 137, 0.73);"/>
          <path d="M2176.8,2050l43.8-19.9c0.4,1.1,0.9,2.2,1.4,3.3l-43.8,19.9C2177.7,2052.2,2177.2,2051.1,2176.8,2050" style="fill: rgba(73, 45, 137, 0.73);"/>
          <path d="M2178.2,2053.4l43.8-19.9c0.6,1.3,1.3,2.6,2.1,3.9l-43.8,19.9C2179.5,2056,2178.8,2054.7,2178.2,2053.4" style="fill: rgba(73, 45, 137, 0.73);"/>
          <path d="M2180.3,2057.3l43.8-19.9c1.1,1.9,2.4,3.7,3.9,5.5l-43.8,19.9C2182.7,2061,2181.4,2059.1,2180.3,2057.3" style="fill: rgba(73, 45, 137, 0.73);"/>
          <path d="M2184.2,2062.8l43.8-19.9c1.6,2,3.4,4,5.4,6.1c11,11,20.7,14.6,29.2,10.7l-43.8,19.9 c-8.5,3.9-18.2,0.3-29.2-10.7C2187.6,2066.9,2185.8,2064.9,2184.2,2062.8" style="fill: rgba(73, 45, 137, 0.73);"/>
        </g>
      </g>
      <g>
        <polygon points="2303.2,1958.1 2347,1938.2 2415.3,2019.1 2371.5,2039 &#9;&#9;&#9;" style="fill: rgba(73, 45, 137, 0.73);"/>
      </g>
      <g>
        <polygon points="2371.5,2039 2415.3,2019.1 2347.2,2122.4 2303.4,2142.3 &#9;&#9;&#9;" style="fill: rgba(73, 45, 137, 0.73);"/>
      </g>
      <g>
        <path d="M2303.4,2142.3c-43.3,65.6-97.4,65.7-162.5,0.4c-60.2-60.4-76.5-117.7-48.9-171.8 c10.8-16.4,8.1-32.8-8.2-49.1l48.7-73.8l24.4,24.5c48.8,49,57,98.1,24.5,147.3c-10.8,16.4-8.1,32.8,8.2,49.1 c16.3,16.3,29.8,16.3,40.6-0.1l73-110.7l68.3,80.9L2303.4,2142.3z" style="fill: rgba(73, 45, 137, 0.73);"/>
      </g>
    </g>
  </g>
  <g>
    <g enable-background="new    ">
      <g>
        <polygon points="2221.2,1229.3 2238,1184.3 2341.7,1184.5 2324.9,1229.5 &#9;&#9;&#9;" style="fill: rgba(146, 136, 51, 0.71);"/>
      </g>
      <g>
        <polygon points="2324.9,1229.5 2341.7,1184.5 2359.5,1271.1 2342.6,1316.1 &#9;&#9;&#9;" style="fill: rgba(146, 136, 51, 0.71);"/>
      </g>
      <g>
        <polygon points="2221.2,1229.3 2324.9,1229.5 2342.6,1316.1 2238.9,1315.9 &#9;&#9;&#9;" style="fill: rgba(146, 136, 51, 0.71);"/>
      </g>
    </g>
    <g enable-background="new    ">
      <g>
        <polygon points="2359.4,1229.6 2376.3,1184.6 2410.9,1184.6 2394,1229.6 &#9;&#9;&#9;" style="fill: rgba(146, 136, 51, 0.71);"/>
      </g>
      <g enable-background="new    ">
        <defs>
          <path id="SVGID_25_" enable-background="new    " d="M2703.4,1334.7l-16.9,45c6.3-16.9,6.9-37.9,1.8-63l16.9-45 C2710.4,1296.8,2709.8,1317.8,2703.4,1334.7z"/>
        </defs>
        <clipPath id="SVGID_26_">
          <path enable-background="new    " d="M 2703.4 1334.7 L 2686.5 1379.7 C 2692.8 1362.8 2693.4 1341.8 2688.3 1316.7 L 2705.2 1271.7 C 2710.4 1296.8 2709.8 1317.8 2703.4 1334.7 Z" overflow="visible"/>
        </clipPath>
        <g clip-path="url(#SVGID_26_)" enable-background="new    ">
          <path d="M2688.3,1316.7l16.9-45c2.3,11.4,3.5,22,3.5,31.7l-16.9,45C2691.8,1338.7,2690.7,1328.2,2688.3,1316.7" style="fill: rgba(146, 136, 51, 0.71);"/>
          <path d="M2691.8,1348.4l16.9-45c0,6.8-0.6,13.2-1.8,19.2l-16.9,45C2691.2,1361.7,2691.8,1355.3,2691.8,1348.4" style="fill: rgba(146, 136, 51, 0.71);"/>
          <path d="M2690,1367.7l16.9-45c-0.8,4.2-2,8.2-3.4,12l-16.9,45C2688,1375.9,2689.1,1371.9,2690,1367.7" style="fill: rgba(146, 136, 51, 0.71);"/>
        </g>
      </g>
      <g enable-background="new    ">
        <defs>
          <path id="SVGID_27_" enable-background="new    " d="M2601.1,1287.3l-16.9,45c-3.3,8.7-12.7,13.1-28.2,13.1 c-23.1,0-36.5-9.7-40.5-28.9c-11.8-57.7-52.3-86.6-121.5-86.8l16.9-45c69.1,0.1,109.6,29.1,121.5,86.8 c3.9,19.2,17.4,28.9,40.5,28.9C2588.4,1300.4,2597.8,1296,2601.1,1287.3z"/>
        </defs>
        <clipPath id="SVGID_28_">
          <path enable-background="new    " d="M 2601.1 1287.3 L 2584.2 1332.3 C 2580.9 1341 2571.5 1345.4 2556 1345.4 C 2532.9 1345.4 2519.5 1335.7 2515.5 1316.5 C 2503.7 1258.8 2463.2 1229.9 2394 1229.7 L 2410.9 1184.7 C 2480 1184.8 2520.5 1213.8 2532.4 1271.5 C 2536.3 1290.7 2549.8 1300.4 2572.9 1300.4 C 2588.4 1300.4 2597.8 1296 2601.1 1287.3 Z" overflow="visible"/>
        </clipPath>
        <g clip-path="url(#SVGID_28_)" enable-background="new    ">
          <path d="M2394,1229.6l16.9-45c8.6,0,16.7,0.5,24.4,1.4l-16.9,45C2410.7,1230.1,2402.6,1229.7,2394,1229.6" style="fill: rgba(146, 136, 51, 0.71);"/>
          <path d="M2418.4,1231l16.9-45c7,0.8,13.7,2,20,3.6l-16.9,45C2432,1233,2425.4,1231.8,2418.4,1231" style="fill: rgba(146, 136, 51, 0.71);"/>
          <path d="M2438.3,1234.6l16.9-45c4.5,1.1,8.7,2.4,12.8,3.9l-16.9,45C2447.1,1237,2442.8,1235.7,2438.3,1234.6" style="fill: rgba(146, 136, 51, 0.71);"/>
          <path d="M2451.2,1238.5l16.9-45c3.5,1.2,6.8,2.6,10,4.1l-16.9,45C2457.9,1241.1,2454.6,1239.7,2451.2,1238.5" style="fill: rgba(146, 136, 51, 0.71);"/>
          <path d="M2461.1,1242.6l16.9-45c3,1.4,5.9,3,8.7,4.6l-16.9,45C2467,1245.6,2464.1,1244,2461.1,1242.6" style="fill: rgba(146, 136, 51, 0.71);"/>
          <path d="M2469.8,1247.2l16.9-45c2.9,1.7,5.6,3.6,8.3,5.5l-16.9,45C2475.4,1250.8,2472.7,1248.9,2469.8,1247.2" style="fill: rgba(146, 136, 51, 0.71);"/>
          <path d="M2478.1,1252.8l16.9-45c3.1,2.3,6,4.8,8.7,7.5l-16.9,45C2484,1257.6,2481.1,1255.1,2478.1,1252.8" style="fill: rgba(146, 136, 51, 0.71);"/>
          <path d="M2486.8,1260.2l16.9-45c4.9,4.7,9.2,10,12.9,15.8l-16.9,45C2495.9,1270.2,2491.6,1265,2486.8,1260.2" style="fill: rgba(146, 136, 51, 0.71);"/>
          <path d="M2499.7,1276.1l16.9-45c5.5,8.5,9.8,18.1,13,28.9l-16.9,45C2509.5,1294.2,2505.2,1284.5,2499.7,1276.1" style="fill: rgba(146, 136, 51, 0.71);"/>
          <path d="M2512.7,1305l16.9-45c1.1,3.7,2,7.5,2.8,11.4c0.3,1.3,0.6,2.6,0.9,3.8l-16.9,45 c-0.4-1.2-0.7-2.5-0.9-3.8C2514.7,1312.5,2513.7,1308.7,2512.7,1305" style="fill: rgba(146, 136, 51, 0.71);"/>
          <path d="M2516.4,1320.2l16.9-45c1.1,3.6,2.5,6.8,4.3,9.6l-16.9,45C2518.9,1327,2517.5,1323.8,2516.4,1320.2" style="fill: rgba(146, 136, 51, 0.71);"/>
          <path d="M2520.8,1329.9l16.9-45c1.3,1.9,2.7,3.7,4.3,5.3l-16.9,45C2523.4,1333.6,2522,1331.8,2520.8,1329.9" style="fill: rgba(146, 136, 51, 0.71);"/>
          <path d="M2525.1,1335.1l16.9-45c0.9,0.9,1.9,1.7,2.9,2.5l-16.9,45C2526.9,1336.9,2526,1336,2525.1,1335.1" style="fill: rgba(146, 136, 51, 0.71);"/>
          <path d="M2528,1337.6l16.9-45c0.9,0.7,1.8,1.3,2.8,1.8l-16.9,45C2529.8,1338.9,2528.8,1338.3,2528,1337.6" style="fill: rgba(146, 136, 51, 0.71);"/>
          <path d="M2530.7,1339.5l16.9-45c0.9,0.6,1.9,1.1,2.9,1.5l-16.9,45C2532.6,1340.6,2531.6,1340,2530.7,1339.5" style="fill: rgba(146, 136, 51, 0.71);"/>
          <path d="M2533.6,1341l16.9-45c1.1,0.5,2.2,1,3.3,1.4l-16.9,45C2535.8,1342,2534.7,1341.5,2533.6,1341" style="fill: rgba(146, 136, 51, 0.71);"/>
          <path d="M2536.9,1342.4l16.9-45c1.4,0.5,2.8,0.9,4.3,1.3l-16.9,45C2539.7,1343.3,2538.3,1342.9,2536.9,1342.4" style="fill: rgba(146, 136, 51, 0.71);"/>
          <path d="M2541.2,1343.7l16.9-45c2.1,0.5,4.3,0.9,6.7,1.2l-16.9,45C2545.5,1344.6,2543.3,1344.2,2541.2,1343.7" style="fill: rgba(146, 136, 51, 0.71);"/>
          <path d="M2547.9,1344.9l16.9-45c2.6,0.3,5.3,0.5,8.1,0.5c15.5,0,24.9-4.3,28.2-13.1l-16.9,45 c-3.3,8.7-12.7,13.1-28.2,13.1C2553.1,1345.3,2550.4,1345.2,2547.9,1344.9" style="fill: rgba(146, 136, 51, 0.71);"/>
        </g>
      </g>
      <g>
        <polygon points="2558,1186.7 2574.9,1141.7 2680.3,1150.5 2663.5,1195.5 &#9;&#9;&#9;" style="fill: rgba(146, 136, 51, 0.71);"/>
      </g>
      <g>
        <polygon points="2663.5,1195.5 2680.3,1150.5 2705.2,1271.7 2688.3,1316.7 &#9;&#9;&#9;" style="fill: rgba(146, 136, 51, 0.71);"/>
      </g>
      <g>
        <path d="M2688.3,1316.7c15.8,77-22.4,115.4-114.6,115.2c-85.3-0.2-137.3-29.1-156.1-86.8 c-3.9-19.2-17.5-28.9-40.5-28.9l-17.8-86.6l34.6,0.1c69.1,0.1,109.6,29.1,121.5,86.8c3.9,19.2,17.4,28.9,40.5,28.9 c23,0,32.6-9.6,28.7-28.8l-26.6-129.9l105.5,8.9L2688.3,1316.7z" style="fill: rgba(146, 136, 51, 0.71);"/>
      </g>
    </g>
  </g>
  <g>
    <g enable-background="new    ">
      <g>
        <polygon points="1984.6,729.3 1964.7,685.6 2038.2,612.4 2058.1,656.1 &#9;&#9;&#9;" style="fill: rgba(13, 147, 71, 0.69);"/>
      </g>
      <g>
        <polygon points="2058.1,656.1 2038.2,612.4 2112,661.1 2131.9,704.8 &#9;&#9;&#9;" style="fill: rgba(13, 147, 71, 0.69);"/>
      </g>
      <g>
        <polygon points="1984.6,729.3 2058.1,656.1 2131.9,704.8 2058.4,778 &#9;&#9;&#9;" style="fill: rgba(13, 147, 71, 0.69);"/>
      </g>
    </g>
    <g enable-background="new    ">
      <g>
        <polygon points="2082.6,631.7 2062.7,588 2087.2,563.6 2107.1,607.3 &#9;&#9;&#9;" style="fill: rgba(13, 147, 71, 0.69);"/>
      </g>
      <g enable-background="new    ">
        <defs>
          <path id="SVGID_29_" enable-background="new    " d="M2400.2,462.8l19.9,43.8c-7.5-16.4-21.9-31.7-43.3-45.8l-19.9-43.8 C2378.3,431.1,2392.7,446.4,2400.2,462.8z"/>
        </defs>
        <clipPath id="SVGID_30_">
          <path enable-background="new    " d="M 2400.2 462.8 L 2420.1 506.6 C 2412.6 490.2 2398.2 474.9 2376.8 460.8 L 2356.9 417 C 2378.3 431.1 2392.7 446.4 2400.2 462.8 Z" overflow="visible"/>
        </clipPath>
        <g clip-path="url(#SVGID_30_)" enable-background="new    ">
          <path d="M2376.8,460.8l-19.9-43.8c9.7,6.4,18,13.1,24.9,20l19.9,43.8C2394.8,473.9,2386.5,467.2,2376.8,460.8" style="fill: rgba(13, 147, 71, 0.69);"/>
          <path d="M2401.7,480.8l-19.9-43.8c4.8,4.8,8.9,9.8,12.3,14.9l19.9,43.8C2410.6,490.6,2406.5,485.6,2401.7,480.8" style="fill: rgba(13, 147, 71, 0.69);"/>
          <path d="M2414,495.7l-19.9-43.8c2.4,3.6,4.4,7.2,6.1,10.9l19.9,43.8C2418.4,502.9,2416.4,499.2,2414,495.7" style="fill: rgba(13, 147, 71, 0.69);"/>
        </g>
      </g>
      <g enable-background="new    ">
        <defs>
          <path id="SVGID_31_" enable-background="new    " d="M2294.2,501.7l19.9,43.8c3.9,8.5,0.3,18.2-10.7,29.2 c-16.3,16.3-32.7,19-49.1,8.2c-49.2-32.4-98.3-24.3-147.3,24.5l-19.9-43.8c49-48.8,98.1-57,147.3-24.5 c16.4,10.8,32.8,8.1,49.1-8.2C2294.5,519.9,2298.1,510.2,2294.2,501.7z"/>
        </defs>
        <clipPath id="SVGID_32_">
          <path enable-background="new    " d="M 2294.2 501.7 L 2314.1 545.5 C 2318 554 2314.4 563.7 2303.4 574.7 C 2287.1 591 2270.7 593.7 2254.3 582.9 C 2205.1 550.5 2156 558.6 2107 607.4 L 2087.1 563.6 C 2136.1 514.8 2185.2 506.6 2234.4 539.1 C 2250.8 549.9 2267.2 547.2 2283.5 530.9 C 2294.5 519.9 2298.1 510.2 2294.2 501.7 Z" overflow="visible"/>
        </clipPath>
        <g clip-path="url(#SVGID_32_)" enable-background="new    ">
          <path d="M2107.1,607.3l-19.9-43.8c6.1-6,12.1-11.5,18.2-16.3l19.9,43.8C2119.2,595.9,2113.1,601.3,2107.1,607.3" style="fill: rgba(13, 147, 71, 0.69);"/>
          <path d="M2125.3,591.1l-19.9-43.8c5.5-4.4,11.1-8.3,16.6-11.6l19.9,43.8C2136.4,582.8,2130.8,586.7,2125.3,591.1 " style="fill: rgba(13, 147, 71, 0.69);"/>
          <path d="M2141.9,579.5l-19.9-43.8c3.9-2.4,7.9-4.5,11.8-6.3l19.9,43.8C2149.8,575,2145.9,577.1,2141.9,579.5" style="fill: rgba(13, 147, 71, 0.69);"/>
          <path d="M2153.7,573.2l-19.9-43.8c3.3-1.6,6.7-2.9,10-4.1l19.9,43.8C2160.4,570.2,2157,571.6,2153.7,573.2" style="fill: rgba(13, 147, 71, 0.69);"/>
          <path d="M2163.7,569l-19.9-43.8c3.1-1.1,6.3-2.1,9.4-2.9l19.9,43.8C2170,567,2166.8,567.9,2163.7,569" style="fill: rgba(13, 147, 71, 0.69);"/>
          <path d="M2173.1,566.2l-19.9-43.8c3.3-0.8,6.5-1.5,9.8-1.9l19.9,43.8C2179.6,564.7,2176.3,565.4,2173.1,566.2" style="fill: rgba(13, 147, 71, 0.69);"/>
          <path d="M2182.9,564.3l-19.9-43.8c3.8-0.5,7.6-0.8,11.5-0.9l19.9,43.8C2190.5,563.4,2186.7,563.7,2182.9,564.3" style="fill: rgba(13, 147, 71, 0.69);"/>
          <path d="M2194.3,563.4l-19.9-43.8c6.8-0.1,13.6,0.6,20.3,2.1l19.9,43.8C2207.9,564,2201.1,563.3,2194.3,563.4" style="fill: rgba(13, 147, 71, 0.69);"/>
          <path d="M2214.6,565.4l-19.9-43.8c9.9,2.1,19.7,5.9,29.6,11.3l19.9,43.8C2234.4,571.3,2224.5,567.6,2214.6,565.4 " style="fill: rgba(13, 147, 71, 0.69);"/>
          <path d="M2244.3,576.7l-19.9-43.8c3.4,1.8,6.7,3.9,10.1,6.1c1.1,0.7,2.2,1.4,3.4,2l19.9,43.8 c-1.1-0.6-2.2-1.3-3.4-2C2251,580.6,2247.6,578.6,2244.3,576.7" style="fill: rgba(13, 147, 71, 0.69);"/>
          <path d="M2257.7,584.8l-19.9-43.8c3.3,1.8,6.6,3.1,9.9,3.8l19.9,43.8C2264.3,587.9,2261,586.6,2257.7,584.8" style="fill: rgba(13, 147, 71, 0.69);"/>
          <path d="M2267.6,588.6l-19.9-43.8c2.3,0.5,4.5,0.7,6.8,0.7l19.9,43.8C2272.1,589.3,2269.8,589.1,2267.6,588.6" style="fill: rgba(13, 147, 71, 0.69);"/>
          <path d="M2274.4,589.3l-19.9-43.8c1.3,0,2.5-0.1,3.8-0.3l19.9,43.8C2276.9,589.2,2275.6,589.3,2274.4,589.3" style="fill: rgba(13, 147, 71, 0.69);"/>
          <path d="M2278.2,589l-19.9-43.8c1.1-0.2,2.2-0.4,3.3-0.6l19.9,43.8C2280.3,588.6,2279.3,588.8,2278.2,589" style="fill: rgba(13, 147, 71, 0.69);"/>
          <path d="M2281.4,588.3l-19.9-43.8c1-0.3,2.1-0.6,3.1-1l19.9,43.8C2283.5,587.8,2282.5,588.1,2281.4,588.3" style="fill: rgba(13, 147, 71, 0.69);"/>
          <path d="M2284.6,587.4l-19.9-43.8c1.1-0.4,2.2-0.9,3.3-1.4l19.9,43.8C2286.8,586.5,2285.7,587,2284.6,587.4" style="fill: rgba(13, 147, 71, 0.69);"/>
          <path d="M2287.9,586l-19.9-43.8c1.3-0.6,2.6-1.3,3.9-2.1l19.9,43.8C2290.5,584.7,2289.2,585.4,2287.9,586" style="fill: rgba(13, 147, 71, 0.69);"/>
          <path d="M2291.8,583.9l-19.9-43.8c1.9-1.1,3.7-2.4,5.5-3.9l19.9,43.8C2295.5,581.5,2293.7,582.8,2291.8,583.9" style="fill: rgba(13, 147, 71, 0.69);"/>
          <path d="M2297.4,580l-19.9-43.8c2-1.6,4-3.4,6.1-5.4c11-11,14.6-20.7,10.7-29.2l19.9,43.8 c3.9,8.5,0.3,18.2-10.7,29.2C2301.4,576.6,2299.4,578.4,2297.4,580" style="fill: rgba(13, 147, 71, 0.69);"/>
        </g>
      </g>
      <g>
        <polygon points="2192.7,461 2172.7,417.3 2253.6,348.9 2273.5,392.7 &#9;&#9;&#9;" style="fill: rgba(13, 147, 71, 0.69);"/>
      </g>
      <g>
        <polygon points="2273.5,392.7 2253.6,348.9 2356.9,417 2376.8,460.8 &#9;&#9;&#9;" style="fill: rgba(13, 147, 71, 0.69);"/>
      </g>
      <g>
        <path d="M2376.8,460.8c65.6,43.3,65.7,97.4,0.4,162.5c-60.4,60.2-117.7,76.5-171.7,48.9 c-16.4-10.8-32.8-8.1-49.1,8.2l-73.8-48.7l24.5-24.4c49-48.8,98.1-57,147.3-24.5c16.4,10.8,32.8,8.1,49.1-8.2 c16.3-16.3,16.3-29.8-0.1-40.6l-110.7-73l80.9-68.3L2376.8,460.8z" style="fill: rgba(13, 147, 71, 0.69);"/>
      </g>
    </g>
  </g>
</svg>
